<?xml version="1.0" standalone="no"?>
<!DOCTYPE svg PUBLIC "-//W3C//DTD SVG 20010904//EN"
 "http://www.w3.org/TR/2001/REC-SVG-20010904/DTD/svg10.dtd">
<svg version="1.0" xmlns="http://www.w3.org/2000/svg"
 width="300.000000pt" height="260.000000pt" viewBox="0 0 300.000000 260.000000"
 preserveAspectRatio="xMidYMid meet">
<metadata>
Created by potrace 1.10, written by Peter Selinger 2001-2011
</metadata>
<g transform="translate(0.000000,260.000000) scale(0.100000,-0.100000)"
fill="#000000" stroke="none">
<path d="M1363 2503 c70 -2 184 -2 255 0 70 1 12 3 -128 3 -140 0 -198 -2
-127 -3z"/>
<path d="M1195 2454 c-11 -3 -51 -12 -90 -21 -218 -49 -497 -216 -660 -395
-137 -151 -214 -305 -256 -510 -80 -390 -31 -678 167 -981 107 -164 214 -257
403 -351 116 -59 202 -77 391 -83 143 -5 179 -3 273 16 115 23 178 42 240 72
33 15 48 17 115 8 127 -16 271 -21 301 -11 16 6 34 6 43 1 9 -5 31 -3 54 5 92
32 140 46 159 46 25 0 285 127 285 140 0 5 19 22 43 36 64 40 145 123 175 179
26 48 27 57 30 238 6 344 -40 587 -158 832 -38 80 -93 180 -122 223 -101 147
-280 304 -470 415 -109 62 -167 83 -318 114 -108 22 -156 26 -355 29 -126 1
-239 1 -250 -2z m505 -70 c19 -3 44 -9 55 -15 11 -5 63 -18 115 -29 52 -12 98
-27 102 -34 4 -7 22 -19 40 -26 84 -33 148 -64 148 -71 0 -5 6 -9 13 -9 33 0
258 -176 255 -199 -2 -9 4 -16 13 -16 16 0 81 -67 78 -82 -5 -28 3 -44 19 -41
32 7 162 -224 162 -288 0 -17 6 -37 14 -43 18 -15 27 -49 15 -57 -6 -4 -6 -10
0 -17 16 -20 51 -135 46 -149 -3 -8 3 -43 14 -78 18 -57 18 -66 6 -80 -18 -20
-19 -42 -4 -57 12 -12 8 -137 -5 -164 -4 -10 -1 -22 8 -32 23 -22 20 -60 -6
-84 -102 -93 -333 -185 -560 -222 -58 -9 -101 -21 -98 -26 3 -6 21 -9 40 -9
19 1 27 0 17 -3 -9 -2 -15 -8 -13 -11 2 -4 -16 -8 -41 -9 -84 -3 -133 -41
-102 -79 18 -22 1 -34 -61 -41 -96 -11 -153 -92 -86 -121 91 -40 438 16 639
103 65 27 30 -4 -41 -37 -37 -18 -69 -32 -72 -33 -3 0 -16 -7 -29 -14 -14 -8
-50 -20 -80 -28 -31 -8 -72 -19 -91 -24 -82 -25 -212 -31 -360 -16 -141 14
-147 13 -205 -7 -33 -11 -62 -24 -65 -27 -3 -3 -41 -14 -85 -23 -44 -10 -96
-21 -115 -25 -49 -12 -138 -14 -122 -3 8 5 33 8 57 7 24 -1 42 2 40 5 -7 11
93 40 136 40 21 0 40 4 44 9 3 5 30 17 60 26 30 8 55 21 55 27 0 6 3 8 6 5 8
-7 115 49 126 67 4 6 8 8 8 4 0 -12 59 52 65 72 4 11 11 18 16 15 5 -4 9 -2 9
3 0 5 11 22 25 38 14 16 25 33 25 37 0 5 5 5 10 2 6 -3 10 0 10 9 0 8 4 16 8
18 12 4 82 108 82 120 0 5 5 6 12 2 7 -4 8 -3 4 4 -4 6 0 22 8 34 8 13 20 46
27 73 6 28 16 55 20 61 16 20 40 190 40 274 -1 47 -10 127 -20 178 -20 96 -58
202 -73 202 -4 0 -8 9 -8 20 0 10 -13 34 -28 52 -47 55 -117 153 -114 161 1 4
-3 7 -8 7 -6 0 -10 9 -10 20 0 19 -84 97 -101 92 -5 -1 -9 2 -9 6 0 5 -17 18
-37 30 -21 11 -45 30 -54 40 -9 11 -23 22 -30 24 -12 4 -12 8 1 22 13 17 15
17 31 -3 10 -12 22 -21 29 -21 6 0 8 -5 3 -12 -4 -7 5 -5 19 4 26 17 28 17 37
1 8 -15 10 -14 17 10 15 60 -20 230 -49 235 -15 3 -17 -2 -12 -35 11 -70 10
-186 -1 -190 -6 -2 -18 32 -28 79 -26 118 -31 133 -49 136 -14 3 -16 -4 -12
-40 12 -114 13 -148 7 -148 -19 1 -29 21 -40 87 -11 67 -38 143 -51 143 -3 0
-12 -4 -19 -8 -10 -7 -9 -17 3 -51 21 -59 30 -141 16 -141 -6 0 -13 12 -16 28
-11 53 -45 166 -53 174 -4 4 -13 4 -20 0 -12 -8 -10 -15 24 -107 4 -11 12 -38
19 -60 l11 -40 -38 3 c-21 2 -41 8 -44 13 -7 13 28 70 41 65 6 -2 -3 23 -18
56 -16 33 -31 57 -33 55 -3 -2 0 -24 5 -48 14 -60 13 -69 -4 -63 -11 5 -15 -1
-15 -21 0 -46 -30 -25 -56 39 -28 68 -59 106 -87 106 -17 0 -15 -4 11 -37 40
-52 74 -121 62 -128 -5 -3 -21 14 -36 37 -52 84 -85 118 -111 118 -25 0 -24 0
14 -47 21 -27 47 -60 56 -75 17 -28 17 -28 -8 -28 -18 0 -32 11 -50 38 -25 39
-92 99 -134 121 -17 9 -26 10 -34 2 -8 -8 -8 -11 0 -11 17 0 122 -99 139 -131
23 -45 -5 -36 -40 12 -15 22 -58 60 -95 85 -56 37 -72 43 -92 36 l-24 -9 30
-16 c17 -8 57 -40 90 -71 45 -42 56 -59 48 -67 -9 -9 -27 2 -75 45 -62 55 -98
70 -98 42 0 -8 3 -16 8 -18 4 -1 22 -22 40 -45 28 -35 31 -44 18 -49 -9 -4
-31 8 -57 29 -37 32 -160 87 -195 87 -30 0 -12 -19 34 -34 56 -19 181 -98 163
-104 -6 -2 -31 8 -54 24 -43 28 -74 39 -170 56 -40 8 -61 8 -68 1 -7 -7 9 -14
50 -21 64 -12 191 -66 191 -83 0 -12 -27 -12 -34 0 -9 14 -153 64 -168 58 -9
-3 -7 -7 7 -12 73 -27 154 -70 147 -77 -5 -5 -30 2 -58 17 -61 31 -218 50
-196 23 7 -9 38 -18 74 -22 34 -4 74 -14 90 -22 15 -8 28 -12 28 -8 0 4 6 1
13 -5 8 -6 18 -7 22 -3 5 4 2 -4 -6 -17 -24 -38 -46 -49 -61 -30 -35 42 -179
64 -186 28 -2 -14 10 -17 71 -21 86 -6 104 -13 85 -35 -9 -12 -25 -14 -70 -9
-68 8 -79 -8 -18 -24 54 -15 52 -33 -2 -25 -24 3 -65 2 -93 -2 -40 -7 -51 -12
-53 -29 -3 -19 0 -20 59 -13 66 8 92 3 86 -15 -2 -7 -30 -11 -70 -11 -83 0
-94 -19 -14 -23 83 -4 69 -25 -23 -34 -43 -5 -80 -14 -89 -23 -21 -21 -13 -23
49 -15 30 4 64 4 75 0 24 -10 15 -14 -70 -29 -34 -6 -65 -18 -72 -28 -7 -9
-11 -18 -9 -20 1 -2 31 4 65 13 35 8 65 13 68 10 13 -13 -9 -36 -35 -36 -16 0
-49 -7 -75 -16 -48 -16 -60 -39 -38 -72 10 -16 54 -7 72 14 14 17 2 18 -37 4
-15 -6 -29 -9 -31 -6 -7 7 49 33 82 39 17 3 37 8 46 12 13 5 16 -2 16 -39 0
-26 -4 -46 -9 -46 -5 0 -7 -4 -3 -9 3 -5 1 -12 -4 -16 -6 -3 -8 -12 -4 -20 3
-9 0 -28 -7 -44 -9 -24 -9 -35 5 -61 9 -17 14 -38 11 -46 -3 -7 0 -16 5 -20 7
-4 8 -25 4 -55 -5 -33 -3 -54 5 -64 7 -8 10 -15 7 -15 -7 0 17 -72 36 -110 18
-37 55 -91 61 -90 11 0 43 -35 39 -42 -2 -5 1 -8 7 -8 6 0 21 -11 34 -25 13
-14 34 -25 47 -25 40 0 99 -12 99 -20 0 -9 54 -31 88 -36 13 -1 29 -7 36 -13
10 -9 107 -9 141 0 6 1 27 -1 47 -5 30 -6 48 -3 83 13 25 12 61 21 80 21 25 0
44 8 62 26 14 14 36 29 49 34 25 10 66 68 58 82 -3 4 -1 8 5 8 6 0 19 17 30
38 11 20 20 33 21 28 0 -5 13 6 29 24 33 38 60 34 35 -6 -9 -13 -14 -34 -11
-46 4 -15 -3 -29 -25 -50 -21 -19 -29 -34 -25 -48 3 -13 -2 -25 -14 -34 -18
-12 -11 -14 58 -20 124 -11 310 24 340 63 19 24 15 33 -8 20 -50 -26 -332 -53
-352 -33 -3 4 -2 15 4 25 7 15 21 19 61 19 49 0 143 14 198 30 14 3 26 13 28
21 2 12 -19 13 -123 11 -69 -2 -125 -1 -125 1 0 24 16 37 44 37 82 0 311 82
345 123 19 24 1 21 -56 -7 -74 -37 -293 -93 -307 -78 -11 11 17 32 43 32 50 0
178 47 237 87 81 56 161 161 138 182 -4 3 -9 0 -11 -7 -3 -7 -24 -36 -48 -66
-50 -61 -162 -125 -255 -146 -30 -7 -65 -16 -78 -21 -13 -5 -31 -9 -40 -8 -10
0 -12 3 -4 6 6 2 9 9 6 15 -4 6 0 14 7 19 20 12 31 11 23 -2 -22 -35 168 35
207 77 25 27 11 32 -25 9 -44 -29 -216 -73 -216 -55 0 5 3 9 8 8 4 -1 19 4 35
10 40 17 34 38 -10 33 -22 -3 -23 18 -1 24 13 4 56 23 96 43 101 49 225 183
197 210 -4 4 -19 -9 -33 -28 -61 -81 -197 -188 -226 -177 -8 3 -20 -1 -27 -9
-7 -8 -18 -13 -25 -10 -8 3 -11 0 -7 -10 3 -7 1 -14 -4 -14 -9 0 -22 28 -59
130 -19 53 -35 76 -85 123 -34 31 -66 57 -71 57 -4 0 -26 11 -46 24 -40 25
-126 58 -152 57 -8 0 -37 -2 -65 -5 -27 -3 -61 -5 -75 -5 -28 -1 -80 -20 -80
-30 0 -4 -9 -7 -20 -8 -10 -1 -36 -9 -56 -19 -20 -10 -39 -13 -42 -8 -13 17
-32 14 -32 -5 0 -22 -16 -35 -44 -36 -20 0 -36 -25 -17 -25 6 0 11 -6 11 -14
0 -9 -17 -16 -49 -21 -27 -4 -64 -17 -82 -31 -18 -13 -39 -24 -46 -24 -16 0
-36 -37 -28 -51 5 -7 12 -6 21 2 24 20 114 59 136 59 36 0 13 -24 -57 -59 -37
-19 -88 -54 -113 -78 -25 -23 -47 -43 -48 -43 -1 0 0 19 3 41 5 32 2 44 -11
51 -20 11 -21 32 -2 47 8 7 17 33 20 59 13 111 19 138 36 157 10 11 21 31 25
45 4 14 18 38 31 53 13 16 24 35 24 43 0 37 158 201 230 238 45 24 133 48 220
61 42 7 62 7 128 3 15 -1 50 0 77 1 54 2 152 -11 201 -27 47 -15 93 -41 159
-89 33 -24 82 -58 109 -76 29 -20 53 -44 57 -58 8 -31 85 -145 102 -152 21 -8
105 -178 126 -257 29 -106 35 -262 15 -380 -9 -52 -23 -103 -31 -112 -8 -9
-12 -21 -9 -27 16 -25 -63 -172 -142 -264 -20 -24 -53 -63 -72 -87 -19 -25
-51 -59 -70 -77 -36 -35 -188 -113 -218 -113 -10 0 -27 -7 -38 -15 -12 -8 -39
-13 -60 -12 -23 0 -58 -8 -84 -21 -25 -12 -59 -22 -75 -22 -17 0 -67 -3 -112
-6 -72 -5 -92 -3 -180 24 -54 17 -117 33 -140 37 -28 4 -50 15 -62 31 -25 32
-135 114 -153 114 -27 0 -100 93 -91 116 3 8 1 14 -5 14 -6 0 -12 -5 -14 -10
-2 -6 -22 14 -46 44 -37 49 -42 60 -42 108 0 69 26 190 43 203 21 16 46 125
28 125 -6 0 -11 10 -11 23 0 12 -7 31 -15 41 -8 11 -15 31 -15 45 0 14 -7 35
-15 45 -10 13 -12 23 -5 32 7 8 7 20 -1 37 -10 22 -9 31 5 52 9 14 18 39 19
55 1 17 5 30 8 30 4 0 6 11 5 24 0 13 -3 23 -5 20 -2 -2 -12 5 -21 16 -17 19
-17 19 -58 0 -76 -37 -70 -61 8 -31 l52 20 -6 -22 c-3 -12 -6 -28 -6 -36 0 -8
-6 -11 -16 -7 -21 8 -94 -50 -94 -75 0 -27 6 -24 50 21 22 22 42 40 45 40 15
0 -10 -46 -46 -82 -21 -22 -39 -50 -39 -61 0 -18 5 -16 40 18 37 36 40 37 40
16 0 -14 -16 -39 -40 -62 -28 -27 -40 -48 -40 -66 0 -28 0 -28 40 15 22 23 42
42 45 42 17 0 0 -51 -25 -75 -34 -33 -50 -72 -40 -100 6 -16 11 -13 34 27 36
63 52 75 59 47 4 -14 -2 -33 -17 -53 -34 -45 -56 -92 -56 -118 1 -17 8 -9 29
32 16 30 38 64 50 74 21 19 21 19 21 -1 0 -11 -16 -50 -35 -87 -26 -50 -33
-74 -28 -96 3 -18 1 -30 -5 -30 -6 0 -12 -24 -14 -52 l-3 -53 -48 87 c-67 121
-100 208 -80 208 8 0 13 5 11 11 -2 6 -7 10 -12 9 -20 -2 -50 122 -55 225 -1
6 2 27 5 48 4 23 1 48 -6 62 -9 17 -9 28 -1 43 6 11 8 34 5 50 -4 17 -1 32 5
36 6 4 11 25 11 46 0 21 5 42 10 45 6 3 10 20 10 36 0 17 11 47 25 67 14 20
25 44 25 54 0 25 65 131 89 146 11 6 32 30 46 52 65 102 258 277 294 265 22
-7 40 13 22 25 -13 7 109 90 133 90 7 0 25 9 39 20 14 11 31 20 39 20 7 0 60
15 118 34 71 24 108 32 116 25 8 -7 32 -5 71 5 32 8 69 16 83 18 34 4 276 -2
320 -8z m-850 -104 c0 -5 -6 -10 -13 -10 -7 0 -23 -9 -35 -20 -13 -13 -23 -16
-27 -9 -4 6 -5 11 -4 12 5 3 73 36 77 36 1 1 2 -3 2 -9z m-80 -50 c0 -5 -5
-10 -11 -10 -5 0 -8 -4 -5 -8 7 -11 -51 -45 -64 -37 -6 3 -7 -1 -4 -9 3 -9 1
-16 -5 -16 -17 0 -164 -134 -196 -180 -16 -23 -58 -71 -92 -106 -34 -35 -65
-75 -69 -89 -3 -14 -10 -25 -16 -25 -13 0 45 105 96 173 82 109 177 201 285
273 68 46 81 51 81 34z m570 -701 c129 -62 220 -151 220 -215 0 -18 4 -34 8
-36 17 -7 52 -109 51 -150 -1 -78 -13 -123 -32 -120 -20 3 -22 -9 -4 -27 12
-14 9 -14 -39 6 -13 5 -15 2 -10 -13 4 -13 -1 -24 -14 -34 -11 -8 -20 -24 -20
-37 0 -19 -4 -21 -37 -17 -78 11 -183 36 -183 44 0 5 35 6 78 4 69 -3 115 6
101 20 -2 3 -41 6 -85 8 -87 3 -114 -7 -114 -44 0 -28 54 -47 142 -50 75 -3
75 -3 68 -28 -6 -22 -11 -25 -48 -22 l-42 4 7 -33 c6 -31 5 -32 -27 -27 -18 3
-50 -1 -71 -9 -50 -17 -77 -5 -137 61 -40 43 -54 76 -32 76 6 0 10 -7 10 -15
0 -26 66 -81 113 -94 74 -21 76 -7 4 27 -43 20 -71 39 -77 54 -5 13 -9 19 -9
14 -1 -5 -9 -2 -18 7 -14 12 -28 14 -60 8 -29 -6 -43 -5 -43 2 0 8 -3 8 -11 0
-17 -17 21 -92 64 -130 43 -37 45 -43 17 -43 -42 0 -89 76 -104 168 -6 39 -5
42 11 34 10 -5 23 -7 30 -5 6 2 14 0 17 -5 4 -6 20 -6 43 0 21 5 49 12 63 15
31 8 90 44 111 69 32 38 60 122 56 168 -4 35 -2 43 9 39 8 -3 11 -9 8 -14 -3
-5 -3 -13 0 -18 8 -12 84 56 102 91 22 42 16 57 -7 19 -23 -38 -58 -70 -76
-71 -19 0 -16 17 5 32 26 18 72 89 72 110 0 24 -17 23 -25 -2 -9 -29 -54 -80
-71 -80 -22 0 -19 7 23 54 31 36 35 144 4 154 -10 3 -11 -2 -5 -19 10 -33 6
-76 -11 -109 -30 -59 -58 -47 -60 25 0 39 -6 49 -40 80 -22 19 -43 35 -47 35
-15 0 -8 -17 16 -39 25 -24 52 -78 44 -87 -12 -11 -66 32 -77 61 -14 41 -121
98 -121 65 0 -5 5 -10 12 -10 23 0 88 -53 88 -71 0 -16 -8 -19 -42 -19 -24 -1
-54 -7 -68 -15 -16 -9 -41 -12 -71 -8 -93 11 -145 -49 -137 -158 3 -53 11 -74
42 -122 50 -78 97 -101 181 -87 116 19 154 79 120 188 -13 39 -30 19 -27 -30
5 -67 -19 -90 -96 -96 -90 -6 -108 1 -127 51 -9 24 -15 56 -13 72 2 16 -2 30
-9 32 -17 6 -35 -42 -27 -73 8 -33 -4 -31 -17 3 -6 15 -7 50 -3 82 8 68 45
111 93 111 35 0 38 -6 15 -32 -10 -10 -19 -39 -21 -65 -4 -39 -1 -53 17 -75
27 -35 66 -39 55 -5 -24 75 -12 111 48 147 69 42 156 19 192 -51 18 -34 23
-161 6 -167 -6 -2 -11 -12 -11 -22 0 -34 -12 -50 -59 -83 -45 -31 -48 -32
-152 -31 -122 1 -154 14 -188 74 -43 77 -61 258 -32 318 32 65 48 91 77 120
18 17 39 32 47 32 24 0 87 30 87 41 0 6 19 9 45 8 24 -2 47 0 51 3 14 14 141
-2 184 -23z m-560 -233 c0 -8 -17 -24 -37 -37 -48 -28 -133 -109 -133 -126 0
-19 6 -16 41 15 37 33 109 82 121 82 21 0 3 -28 -35 -55 -59 -42 -135 -195
-97 -195 5 0 20 21 32 47 12 26 41 66 63 90 23 24 39 46 36 50 -3 3 0 3 7 -1
18 -11 15 -24 -13 -54 -42 -45 -58 -101 -54 -191 2 -45 1 -81 -3 -81 -5 0 -8
4 -8 9 0 4 -13 22 -29 39 -45 47 -87 137 -106 228 -5 25 0 38 22 65 37 45 54
58 127 96 72 38 66 37 66 19z m-562 -32 c0 -13 -4 -24 -9 -24 -4 0 -10 -15
-12 -32 -2 -19 -5 -5 -5 29 -2 49 1 61 12 57 7 -3 14 -16 14 -30z m-1 -149 c1
-30 9 -68 17 -84 9 -16 18 -48 22 -72 4 -24 12 -57 19 -74 7 -16 18 -45 25
-62 7 -18 16 -33 20 -33 5 0 12 -12 18 -27 5 -16 25 -49 45 -75 20 -26 45 -64
56 -85 10 -21 31 -51 46 -68 15 -16 45 -52 67 -80 22 -27 59 -62 82 -76 22
-14 47 -33 55 -42 7 -10 19 -17 25 -17 6 0 30 -18 53 -41 24 -23 57 -45 75
-49 148 -38 168 -45 168 -56 0 -15 -29 -12 -120 13 -53 14 -248 111 -275 136
-24 23 -55 47 -61 47 -8 0 -84 84 -84 93 0 5 -4 5 -10 2 -5 -3 -10 -2 -10 3 0
4 -25 46 -56 93 -31 46 -65 104 -77 129 -11 25 -23 47 -27 50 -22 16 -97 310
-85 330 3 4 1 29 -4 54 -6 32 -5 46 3 46 6 0 12 -23 13 -55z m574 -83 c-5 -15
-13 -46 -16 -69 -6 -35 -4 -43 9 -43 11 0 16 9 16 29 0 35 9 61 21 61 5 0 9
-33 9 -74 0 -40 5 -88 11 -106 9 -26 9 -34 -2 -41 -23 -14 -31 -10 -24 12 8
25 -24 98 -35 79 -4 -7 -4 -27 1 -44 5 -17 9 -32 9 -33 0 -2 -9 -3 -20 -3 -31
0 -43 44 -36 128 6 70 24 130 49 160 10 13 12 12 15 -7 2 -13 -1 -35 -7 -49z
m96 -142 c16 -65 34 -102 50 -108 10 -3 11 11 6 58 l-6 61 27 -12 c15 -7 26
-20 26 -32 0 -11 14 -44 30 -74 35 -61 34 -59 17 -66 -8 -3 -27 6 -42 19 -30
26 -45 30 -45 14 0 -5 -4 -10 -10 -10 -5 0 -10 7 -10 16 0 11 -6 13 -19 9 -11
-3 -22 -1 -26 5 -11 18 -34 121 -35 153 0 46 22 26 37 -33z m67 41 c19 -7 18
-8 -4 -14 -25 -6 -40 -2 -40 14 0 11 17 11 44 0z m140 -66 c-8 -19 55 -92 101
-116 67 -36 58 -55 -11 -23 -31 15 -124 123 -124 144 0 5 9 8 19 7 10 0 17 -6
15 -12z m1720 -117 c-20 -110 -50 -161 -136 -229 -52 -41 -73 -52 -193 -102
-112 -47 -383 -107 -485 -107 -67 0 -140 11 -140 21 0 5 5 9 11 9 6 0 22 9 35
19 16 13 49 21 97 26 39 4 97 13 127 20 30 8 79 17 108 21 49 6 104 35 92 48
-4 3 -71 1 -150 -3 -80 -5 -147 -7 -149 -5 -14 13 27 25 124 38 139 18 229 39
314 73 98 38 248 123 295 165 23 20 44 37 48 38 4 0 5 -15 2 -32z"/>
<path d="M1340 2222 c0 -5 9 -17 20 -27 11 -10 20 -26 20 -35 0 -26 23 -51 39
-41 22 14 -4 78 -39 96 -33 17 -40 18 -40 7z"/>
<path d="M825 2170 c-9 -15 57 -41 70 -29 7 7 4 15 -9 25 -23 16 -52 18 -61 4z"/>
<path d="M1805 2108 c8 -46 12 -90 14 -152 1 -39 1 -39 22 -20 17 16 19 26 14
69 -4 27 -13 71 -21 98 -20 60 -40 63 -29 5z"/>
<path d="M1870 2106 c0 -20 27 -28 34 -10 9 23 8 24 -14 24 -11 0 -20 -6 -20
-14z"/>
<path d="M1951 1981 c-1 -60 -6 -123 -11 -141 -15 -52 14 -100 60 -100 34 0
38 5 32 35 -5 30 -28 33 -37 4 -7 -22 -31 -21 -28 2 1 8 9 50 17 94 19 102 11
215 -14 215 -15 0 -17 -14 -19 -109z"/>
<path d="M2040 2000 c0 -39 -6 -85 -13 -103 -16 -36 -12 -57 9 -57 17 0 29 27
43 95 5 28 13 58 16 68 5 12 2 17 -9 17 -9 0 -21 11 -26 25 -15 40 -20 30 -20
-45z"/>
<path d="M1890 2038 c-1 -7 -4 -32 -9 -55 -6 -33 -5 -40 6 -36 9 3 14 -4 15
-23 1 -16 3 -38 4 -49 1 -11 3 -27 4 -35 1 -10 4 -8 10 6 6 16 7 161 1 197 -2
12 -31 8 -31 -5z"/>
<path d="M2129 1928 c-16 -61 -40 -116 -56 -129 -7 -6 -13 -20 -13 -30 0 -9
-7 -25 -16 -33 -8 -9 -11 -16 -5 -16 5 0 16 7 25 15 24 24 27 17 10 -25 -24
-60 -10 -60 29 1 85 133 108 216 70 245 -27 20 -31 17 -44 -28z"/>
<path d="M680 1933 c0 -5 16 -16 35 -25 27 -12 37 -13 45 -3 8 9 3 14 -17 18
-16 3 -36 9 -45 12 -10 4 -18 3 -18 -2z"/>
<path d="M2192 1808 c-23 -40 -57 -93 -76 -118 -19 -25 -33 -46 -31 -48 10
-10 69 46 103 96 33 50 72 124 72 137 0 3 -6 5 -13 5 -7 0 -32 -33 -55 -72z"/>
<path d="M1230 1841 c0 -6 5 -13 10 -16 16 -10 72 -125 67 -138 -2 -7 -17 3
-33 21 -101 117 -97 114 -138 110 l-38 -3 44 -31 c47 -34 89 -94 66 -94 -8 0
-31 18 -53 40 -40 41 -115 77 -134 65 -18 -11 -13 -19 22 -34 39 -18 97 -60
97 -72 0 -16 -41 -10 -68 10 -49 34 -114 62 -129 57 -10 -4 10 -19 56 -42 39
-19 71 -40 71 -45 0 -6 -9 -8 -19 -4 -13 4 -28 -3 -48 -25 l-28 -30 -50 18
c-69 26 -155 14 -155 -20 0 -6 20 -8 48 -4 55 6 124 -4 120 -19 -2 -5 -23 -11
-48 -12 -64 -3 -84 -8 -145 -33 -11 -5 -29 -11 -39 -14 -15 -5 -17 -9 -7 -19
9 -9 16 -9 32 1 12 8 45 13 75 13 29 0 56 4 58 8 3 3 19 8 37 9 18 2 36 6 39
10 24 34 137 102 168 102 11 0 25 7 32 15 7 8 22 13 34 11 11 -2 29 1 39 6 18
9 49 0 120 -37 16 -8 37 -15 48 -15 10 0 19 -5 19 -11 0 -6 12 -9 28 -7 15 2
33 -4 40 -12 11 -13 12 -2 8 61 -10 143 -45 180 -39 42 l4 -88 -19 24 c-11 13
-26 22 -34 19 -24 -10 -46 16 -63 77 -11 38 -29 70 -47 87 -31 29 -48 35 -48
19z"/>
<path d="M523 1833 c-22 -8 -14 -23 11 -23 30 0 42 15 20 24 -9 3 -16 6 -17 5
-1 0 -8 -3 -14 -6z"/>
<path d="M1320 1833 c0 -5 9 -22 19 -40 11 -17 21 -49 23 -70 2 -30 7 -38 23
-38 15 0 20 6 19 25 -4 55 -17 106 -32 118 -17 13 -52 17 -52 5z"/>
<path d="M2271 1818 c-5 -13 -20 -34 -33 -48 -50 -53 -91 -124 -50 -87 21 20
44 5 34 -22 -5 -14 -4 -14 11 -2 9 7 17 19 17 27 0 7 13 28 28 46 41 48 46 68
22 90 -20 19 -20 19 -29 -4z"/>
<path d="M1476 1798 c26 -81 33 -201 12 -214 -8 -5 -6 -11 6 -20 10 -7 15 -17
12 -23 -4 -5 3 -12 14 -16 11 -3 20 -11 20 -16 0 -6 5 -7 11 -3 8 5 10 -1 6
-18 -5 -20 -1 -27 26 -42 22 -12 26 -13 13 -2 -19 15 -19 16 0 73 26 81 27
246 2 251 -15 3 -18 -5 -18 -52 0 -48 -13 -134 -25 -173 -2 -7 -10 -10 -17 -8
-11 4 -12 20 -4 74 8 59 6 79 -11 138 -14 46 -26 69 -38 71 -14 3 -16 -1 -9
-20z"/>
<path d="M2285 1686 c-28 -30 -49 -59 -47 -66 3 -7 0 -15 -5 -19 -17 -11 -57
-90 -50 -98 8 -8 66 56 67 74 0 6 14 21 30 33 17 12 30 26 30 32 0 6 11 21 25
34 26 24 34 64 13 63 -7 0 -36 -24 -63 -53z"/>
<path d="M1680 1705 c0 -16 6 -25 15 -25 8 0 15 9 15 19 0 10 -7 21 -15 25
-11 4 -15 -1 -15 -19z"/>
<path d="M876 1702 c-16 -19 -15 -19 24 -25 23 -3 49 -12 59 -21 10 -9 21 -13
24 -9 16 15 4 31 -35 48 -24 10 -46 20 -49 22 -3 2 -13 -5 -23 -15z"/>
<path d="M2377 1640 c-10 -17 -37 -43 -60 -58 -50 -32 -59 -43 -47 -57 10 -12
-25 -39 -39 -31 -4 3 -17 -1 -27 -9 -17 -13 -18 -14 -1 -16 31 -3 35 -4 43
-12 5 -4 16 2 26 15 12 16 16 17 12 5 -3 -9 -1 -24 6 -32 13 -16 -7 -49 -54
-86 -14 -11 -26 -25 -26 -30 0 -10 66 29 115 68 17 13 44 34 60 48 22 18 27
27 19 35 -9 9 -22 6 -52 -9 -23 -12 -46 -21 -52 -21 -20 0 -9 18 18 29 47 19
87 47 87 62 0 19 -33 13 -68 -12 -16 -12 -31 -19 -33 -16 -5 4 54 53 121 101
16 12 18 18 9 33 -18 29 -38 26 -57 -7z"/>
<path d="M1642 1549 c-23 -50 -39 -96 -35 -102 10 -17 11 -47 1 -41 -15 9 -8
-13 10 -36 16 -20 20 -21 25 -7 3 9 2 19 -3 22 -6 4 -4 18 5 36 22 42 66 199
60 210 -12 18 -21 7 -63 -82z"/>
<path d="M1781 1576 c-13 -59 -66 -154 -112 -201 -16 -17 -29 -39 -29 -48 0
-26 36 -61 54 -54 10 4 16 1 16 -8 0 -28 31 -2 91 76 55 72 72 109 50 109 -5
0 -46 -37 -90 -82 -55 -55 -85 -78 -92 -71 -6 6 3 24 30 53 22 24 51 65 65 90
26 48 59 167 50 182 -12 19 -21 5 -33 -46z"/>
<path d="M2447 1552 c-21 -22 -22 -42 -3 -42 22 0 39 27 29 45 -8 14 -11 14
-26 -3z"/>
<path d="M1871 1537 c-13 -35 -14 -44 -2 -52 16 -10 32 31 22 57 l-9 23 -11
-28z"/>
<path d="M2464 1459 c-49 -43 -135 -99 -191 -123 -54 -24 -55 -37 -3 -25 28 6
46 5 59 -3 18 -11 17 -13 -11 -36 -34 -28 -30 -42 6 -19 13 9 32 15 42 15 23
-2 202 82 208 97 2 6 -2 19 -9 29 -12 16 -18 14 -79 -28 -63 -43 -120 -64
-148 -53 -9 3 -7 7 7 13 26 10 112 66 149 98 25 21 28 28 20 47 -10 22 -10 22
-50 -12z"/>
<path d="M769 1475 c-3 -2 -14 -6 -25 -8 -37 -8 -95 -38 -101 -53 -9 -25 1
-25 52 1 26 14 56 25 66 25 22 0 35 18 22 31 -5 5 -12 7 -14 4z"/>
<path d="M2495 1279 c-38 -21 -76 -37 -85 -36 -8 1 -39 -2 -69 -7 -55 -8 -54
-26 2 -26 15 0 27 -5 27 -11 0 -6 12 -25 26 -42 26 -31 26 -31 5 -41 -18 -8
-30 -26 -17 -26 19 0 203 89 216 105 5 6 5 17 1 24 -7 10 -26 5 -87 -25 -51
-24 -79 -33 -82 -26 -2 7 -13 12 -25 12 -22 1 -22 1 -3 15 11 8 28 15 38 15
20 0 100 38 133 64 18 13 18 16 5 29 -13 13 -24 10 -85 -24z"/>
<path d="M1932 1284 c2 -11 11 -20 22 -22 13 -3 17 1 14 14 -2 11 -11 20 -22
22 -13 3 -17 -1 -14 -14z"/>
<path d="M1875 1250 c-10 -11 -25 -20 -34 -20 -9 0 -25 -7 -35 -15 -11 -8 -29
-15 -41 -15 -29 0 -36 -9 -24 -31 8 -15 14 -17 29 -9 10 5 26 10 35 10 27 0
116 62 113 79 -5 23 -23 23 -43 1z"/>
<path d="M2515 1124 c-33 -18 -68 -33 -77 -34 -9 0 -29 -5 -42 -12 -25 -11
-25 -12 -7 -24 15 -11 26 -11 62 3 68 27 134 68 137 86 5 23 -3 21 -73 -19z"/>
<path d="M2564 1086 c-10 -8 -16 -18 -11 -22 10 -10 59 8 65 24 5 17 -30 15
-54 -2z"/>
<path d="M2065 1048 c-9 -14 -11 -24 -5 -26 14 -5 40 17 40 34 0 21 -17 17
-35 -8z"/>
<path d="M2470 1046 c-36 -12 -85 -31 -110 -43 -25 -12 -62 -29 -82 -37 -21
-8 -38 -19 -38 -24 0 -12 75 5 125 29 22 10 44 19 48 19 5 0 23 6 40 14 18 7
44 18 60 24 15 7 27 18 27 27 0 8 -1 15 -2 14 -2 0 -32 -11 -68 -23z"/>
<path d="M2640 1040 c-66 -33 -225 -88 -307 -106 -46 -9 -83 -21 -83 -26 0 -8
24 -12 44 -9 5 1 3 -5 -4 -14 -15 -18 -6 -32 12 -18 7 6 29 14 48 18 111 21
340 123 340 150 0 23 -13 24 -50 5z"/>
<path d="M1968 968 c-62 -33 -40 -55 22 -23 19 10 27 20 24 30 -4 8 -7 15 -8
14 0 0 -18 -9 -38 -21z"/>
<path d="M2583 920 c-54 -24 -57 -45 -7 -37 39 7 84 32 84 47 0 15 -30 11 -77
-10z"/>
<path d="M2640 870 c-19 -16 -42 -29 -50 -30 -17 0 -40 -19 -40 -32 0 -15 41
-8 89 17 35 17 50 31 53 50 7 33 -9 32 -52 -5z"/>
<path d="M2385 863 c-79 -9 -94 -14 -89 -28 3 -8 -6 -19 -23 -28 -48 -26 -2
-32 69 -9 35 11 82 25 106 31 55 15 58 42 5 40 -21 -1 -51 -4 -68 -6z"/>
<path d="M502 827 c-16 -43 -15 -50 3 -44 12 5 13 -4 8 -58 -5 -55 -3 -65 10
-65 9 0 18 12 22 33 6 32 18 69 39 120 14 36 32 29 28 -12 -3 -27 0 -32 15
-29 16 3 19 -8 25 -102 6 -111 15 -157 29 -166 11 -7 11 4 -1 104 -7 51 -7 89
-2 99 8 14 10 14 16 -5 4 -12 11 -22 16 -22 4 0 8 -12 7 -27 -3 -77 3 -105 21
-101 13 2 17 13 17 45 0 67 19 55 28 -17 9 -76 46 -164 76 -179 26 -15 26 -13
-4 54 -35 79 -40 118 -20 135 14 12 18 12 26 -1 5 -8 9 -22 9 -32 0 -21 65
-153 80 -162 20 -13 19 0 -10 85 -16 47 -27 87 -24 89 12 12 53 -26 78 -75 47
-89 93 -144 122 -144 24 0 24 1 -16 52 -37 46 -80 118 -80 133 0 3 8 5 18 5
10 0 34 -26 57 -61 48 -72 126 -142 149 -133 9 3 16 8 16 10 0 2 -21 23 -47
46 -55 51 -105 117 -97 129 15 24 51 6 89 -47 45 -61 131 -122 148 -105 7 7 1
17 -19 33 -45 34 -125 121 -121 133 7 19 52 11 87 -16 43 -33 166 -99 186 -99
31 0 11 32 -63 99 -61 55 -75 73 -65 83 9 9 17 7 34 -9 80 -72 268 -137 268
-92 0 5 -7 9 -16 9 -54 0 -241 106 -221 126 4 4 42 -5 85 -20 103 -37 235 -52
265 -31 21 15 21 15 -13 15 -44 0 -196 34 -243 54 -47 19 -50 41 -4 32 17 -3
87 -9 155 -12 106 -6 122 -5 122 8 0 16 -42 27 -177 48 -28 4 -57 11 -63 15
-5 3 -13 -1 -16 -9 -3 -9 -14 -16 -23 -16 -10 0 -28 -11 -41 -25 -13 -14 -29
-25 -37 -25 -7 0 -13 -5 -13 -10 0 -6 -20 -19 -45 -30 -37 -16 -45 -24 -45
-46 0 -15 8 -37 17 -48 13 -15 10 -14 -10 3 -15 14 -27 21 -27 17 0 -5 -6 -3
-14 3 -22 19 -77 22 -93 5 -9 -9 -24 -12 -39 -8 -14 4 -36 1 -50 -6 -19 -11
-29 -11 -50 -1 -19 8 -30 9 -39 1 -10 -8 -23 -5 -53 13 -24 16 -44 22 -52 17
-8 -5 -21 1 -36 17 -28 30 -24 29 -50 15 -18 -10 -24 -7 -43 18 -12 17 -28 30
-36 30 -8 0 -15 3 -15 8 0 4 -16 25 -35 47 -19 22 -35 43 -35 48 0 4 -12 25
-26 46 -28 44 -56 47 -81 11 -19 -27 -33 -25 -33 5 0 35 -14 31 -28 -8z"/>
<path d="M2656 801 c-32 -18 -46 -41 -26 -41 18 0 80 40 80 51 0 13 -21 10
-54 -10z"/>
<path d="M2400 776 c-25 -7 -66 -16 -92 -19 -39 -5 -48 -4 -48 8 0 23 -16 18
-28 -10 -7 -15 -20 -25 -32 -25 -11 0 -30 -10 -42 -22 -19 -19 -20 -22 -5 -33
9 -7 14 -14 11 -17 -2 -3 7 -3 21 -1 15 3 25 1 25 -6 0 -6 -7 -12 -15 -12 -32
-3 -36 -4 -43 -15 -4 -7 -16 -14 -27 -17 -11 -4 5 -4 35 -1 100 9 120 13 142
29 13 8 35 15 50 15 15 0 42 6 60 14 18 8 48 20 66 26 17 7 32 19 32 26 0 16
-18 14 -170 -20 -14 -3 -63 -9 -110 -12 -68 -5 -83 -4 -73 6 6 7 47 17 90 21
115 12 227 42 231 62 4 20 -14 21 -78 3z"/>
<path d="M2553 755 c-40 -17 -43 -35 -5 -35 34 0 68 23 58 38 -9 15 -13 15
-53 -3z"/>
<path d="M595 713 c-3 -26 -9 -60 -11 -75 -5 -23 -2 -28 13 -28 16 0 19 9 21
60 1 33 3 65 4 71 2 6 -2 13 -9 16 -7 3 -14 -13 -18 -44z"/>
<path d="M1839 714 c-11 -14 -9 -15 16 -12 16 1 30 9 33 16 6 18 -33 15 -49
-4z"/>
<path d="M513 634 c-4 -10 -2 -19 5 -22 7 -2 12 -12 12 -22 0 -28 11 -51 21
-44 5 3 6 10 3 16 -4 6 -7 27 -8 46 -1 38 -22 55 -33 26z"/>
<path d="M590 576 c0 -26 12 -46 27 -46 10 0 13 6 9 16 -3 9 -6 22 -6 30 0 8
-7 14 -15 14 -8 0 -15 -6 -15 -14z"/>
<path d="M735 478 c10 -47 55 -80 55 -40 0 31 -24 72 -43 72 -16 0 -18 -5 -12
-32z"/>
<path d="M995 1475 c-27 -13 -43 -24 -35 -24 8 0 26 6 40 14 14 8 35 14 48 15
12 0 22 5 22 10 0 16 -21 12 -75 -15z"/>
<path d="M1454 1219 c-16 -17 -41 -37 -56 -45 -33 -17 -41 -42 -40 -122 0 -52
-2 -63 -14 -58 -9 4 -12 2 -8 -5 4 -6 27 -8 63 -5 81 8 81 9 81 18 0 4 8 8 18
8 21 1 58 27 49 36 -3 4 -19 2 -34 -4 -15 -6 -46 -14 -68 -17 -22 -4 -48 -9
-57 -12 -12 -3 -18 1 -18 12 0 9 4 14 9 10 14 -8 112 32 142 59 35 31 64 75
54 84 -4 4 -10 0 -13 -8 -14 -39 -102 -102 -162 -115 -47 -10 -35 7 30 43 33
18 60 37 60 42 0 14 -5 13 -60 -15 -37 -19 -50 -22 -50 -11 0 7 12 19 28 25
26 12 92 84 92 102 0 17 -16 9 -46 -22z"/>
<path d="M1512 1190 c-17 -28 -15 -32 8 -20 11 6 20 17 20 25 0 21 -13 19 -28
-5z"/>
<path d="M1185 880 c-7 -12 18 -29 77 -52 97 -37 123 -23 46 24 -47 29 -113
44 -123 28z"/>
<path d="M2731 671 c-8 -14 -7 -20 4 -25 15 -5 45 18 45 35 0 17 -39 9 -49
-10z"/>
<path d="M2633 609 c-36 -23 -43 -39 -17 -39 19 0 74 38 74 51 0 15 -23 10
-57 -12z"/>
<path d="M2465 531 c-58 -19 -75 -28 -75 -42 0 -15 77 -1 123 22 39 20 49 40
20 38 -10 -1 -40 -8 -68 -18z"/>
</g>
</svg>
