<svg xmlns="http://www.w3.org/2000/svg" viewBox="0 0 134.57 64"><defs><style>.cls-1{fill:#262126;}</style></defs><title>Asset 1</title><g id="Layer_2" data-name="Layer 2"><g id="Email"><path class="cls-1" d="M30.5,14.45c-.4,0-.8-.53-.93-1-.35-1.45-1.06-2.38-3.39-2.38-.8,0-1.19.22-1.19,1,0,5.73,6.35,5.47,6.35,11.69a5.27,5.27,0,0,1-5.6,5.11c-6,0-6.09-2.78-6.09-5.55,0-.31,0-1,.53-1s.62.17.62.7c0,3.31,3,4,4.94,4,2.2,0,3.13-.39,3.13-2.11,0-1.11-2.91-2.16-4.55-3.84-1.85-1.9-3.79-4.28-3.79-6.75,0-1.85,1.85-4.54,6-4.54h.31c1.36,0,3,0,3.66,1a5.21,5.21,0,0,1,.57,2.73C31,14.19,30.85,14.45,30.5,14.45ZM28.25,20c-1.46-1.32-4.59-5-4.59-7.45a3.82,3.82,0,0,0-.31,1.68C23.35,16.13,26.93,19.48,28.25,20Z"/><path class="cls-1" d="M41,11.1c-1.85,0-3.83.93-3.83,1.76,0,.36,0,.71,0,1.06,0,.66-.17,1.19-1.19,1.19s-1.41-.44-1.41-1.36a3,3,0,0,1,.75-1.55C36.92,10,41.11,9.07,43.8,9.07c3.61,0,4.32,2.34,4.32,5.25,0,1.85-.27,3.92-.27,5.78,0,2.07.66,5.64,1.72,5.64.36,0,.62,0,.88,0,1.11,0,1.5.48,1.5,1.41,0,.57-.75.84-1.32.84-1.1,0-2.34-.84-3.35-2.78a15,15,0,0,1-9.48,3.08c-2.69,0-4.5-1.41-4.5-3.7,0-2.73,2.43-3.57,3.66-4,2-.62,3.53-.79,5.87-1.54,0-3-.22-6.18-1.06-7.45C41.46,11.14,41.33,11.1,41,11.1ZM36.26,26.84a2.72,2.72,0,0,1-.67-2.07,4,4,0,0,1,.58-2.25,2.42,2.42,0,0,0-1.24,1.9A2.8,2.8,0,0,0,36.26,26.84ZM37.58,26a6.61,6.61,0,0,1-.27-2,7.57,7.57,0,0,1,.14-1.41,2.51,2.51,0,0,0-.53,1.68A2,2,0,0,0,37.58,26Zm2.25.52a9.9,9.9,0,0,0,2.33-.66,8.6,8.6,0,0,0,.27-2,25.47,25.47,0,0,0,.31-3.13c-1.46.27-2.74.27-3.49.84s-.61,1.24-.61,2.21,0,2.2.57,2.6A1,1,0,0,0,39.83,26.53Zm4-3.26c-.09.57-.31,2-.4,2.21a3.07,3.07,0,0,1,.62-.22Zm-.36-11a25.27,25.27,0,0,1,.62,6.39,27.54,27.54,0,0,0,.27-3.35A4.7,4.7,0,0,0,43.44,12.25Zm2.69,6.3.22-3.17a12.06,12.06,0,0,0,.09-1.55,5.28,5.28,0,0,0-1.23-2.95,32.56,32.56,0,0,1,.88,4.45C46.09,16,46.09,18,46.13,18.55Zm0,.88c-.22,1.15-.44,1.5-.44,1.81,0,.84.09,2.16.66,2.56C46.22,23.14,46.09,20.41,46.09,19.43Z"/><path class="cls-1" d="M58.76,2.83c0,1.53-1.1,3.31-2.57,3.31-1.63,0-3.36-2.26-3.36-4.15a1.9,1.9,0,0,1,1.89-2C56.82,0,58.76.94,58.76,2.83Z"/><path class="cls-1" d="M63.08,14.58c0-1.32-.09-1.94-.71-1.94-.35,0-.62.31-.7.31-.31,0-.45-.26-.45-.57s.27-.53.75-.66C63.56,11.32,66.34,9,67.09,9a.8.8,0,0,1,.88.8c0,.62-.53,1.63-.57,2.47,1.72-.84,3.7-2.08,6.66-2.08,5.55,0,5.73,3.53,5.73,8.34v6.7c0,1.15.57,1.63,1.45,1.63.18,0,.4,0,.62,0s.31.18.31.48-.18.62-.75.62c-.75,0-1.85-.26-2.73-.26s-1.9.13-3,.13c-.57,0-.92-.18-1-.57,0-.22,1.41-.8,1.41-1.37s-.35-1.59-.35-2.43c0-1.36.09-2.82.09-3.79,0-1.54-.4-2.47-.4-4.1,0-.4,0-.88,0-1.32a2.14,2.14,0,0,0-2.08-2.34c-1.72,0-5.38,1.06-6,2.82A8.19,8.19,0,0,0,67,17.36c0,1.19.22,2.3.22,3.62,0,.44-.18,3-.18,5.2,0,.4.53.44,1.15.44h.66c.75,0,1.45.09,1.45.71s-.3.66-.79.66-1.23-.18-1.94-.18c-.26,0-.66.05-1,.05s-1.06-.05-1.5-.05c-1,0-1.94.18-2.82.18-.57-.09-.62-.22-.62-.62s.22-.35.49-.35c1.19,0,1.32-.35,1.32-1.9s-.4-4.05-.4-5.77c0-.84,0-1.64,0-2.6,0-.45,0-.93,0-1.46C63,15,63.08,14.8,63.08,14.58Zm1.76,5.74a27.74,27.74,0,0,0-.79-6.75c0,3.62.26,7.23.3,11.16A16.15,16.15,0,0,0,64.84,20.32Zm1.1-5.91c0-.44-.35-1.77-.79-1.77.35,1.06.26,10.81.31,12.79Zm11.34,6.66v-.71c0-2.69,0-5-.84-6.48a2.05,2.05,0,0,0,0,.53c0,2.07.53,3,.53,4.94,0,1.36.13,2.86.13,4.63,0,.66-.17,1.28-.17,2A24,24,0,0,0,77.28,21.07ZM77,13a17.75,17.75,0,0,1,1.1,6.84c0,1.89-.13,3.79-.17,5.6.39-.8.44-2.12.44-5.91C78.38,17.19,78.33,14.32,77,13Z"/><path class="cls-1" d="M86.57,7c.75,0,1.5,3.62,2,3.62,1,0,2.34-.09,3.22-.09,1.54,0,2.16.09,2.16.66,0,1-.92,1.11-2.42,1.11s-2.12,0-2.69,0c.7,2.6,1.63,4.76,1.63,7.54,0,1.23-.13,2.56-.13,3.7v1c0,1,.08,1.94.7,1.94s.84-.92,1.28-.92a.88.88,0,0,1,.88,1c0,.62-2.29,1.89-3.61,1.89-4,0-4.9-2.64-4.9-6,0-1.41.13-3.09.13-5,0-.92-.13-1.89-.13-2.91,0-.35,0-.66,0-1,0-2.16-2.52-.57-2.52-1.94,0-.84,3.35-.22,3.53-3.31C85.77,7.79,86.08,7,86.57,7Zm-.14,10.1v1.15c0,1.23.09,2.25.18,3.48s0,4,1.77,4.76c-1.64-2.07-1.68-6.12-1.68-10.89V13.26A19.53,19.53,0,0,0,86.43,17.14Zm3.22,9.53a8.5,8.5,0,0,1-.35-2.87c0-.79,0-1.54,0-2.25a33.94,33.94,0,0,0-1.28-7c0,5.38.83,7.8.83,9.92A3.3,3.3,0,0,0,89.65,26.67Z"/><path class="cls-1" d="M7.67,32.64c-1.85,0-3.83.93-3.83,1.77,0,.35,0,.7,0,1.05,0,.67-.18,1.2-1.19,1.2s-1.41-.45-1.41-1.37A3,3,0,0,1,2,33.74c1.59-2.24,5.77-3.13,8.46-3.13,3.62,0,4.33,2.34,4.33,5.25,0,1.85-.27,3.93-.27,5.78,0,2.07.66,5.64,1.72,5.64.35,0,.62,0,.88,0,1.11,0,1.5.48,1.5,1.41,0,.57-.75.84-1.32.84-1.1,0-2.34-.84-3.35-2.78A14.93,14.93,0,0,1,4.5,49.8C1.81,49.8,0,48.38,0,46.09c0-2.73,2.43-3.57,3.66-4,2-.61,3.53-.79,5.86-1.54,0-3-.22-6.17-1-7.45C8.16,32.69,8,32.64,7.67,32.64ZM3,48.38a2.7,2.7,0,0,1-.66-2.07,4,4,0,0,1,.58-2.25A2.43,2.43,0,0,0,1.63,46,2.8,2.8,0,0,0,3,48.38Zm1.33-.83A6.59,6.59,0,0,1,4,45.61a8.31,8.31,0,0,1,.13-1.41,2.55,2.55,0,0,0-.52,1.67A2,2,0,0,0,4.28,47.55Zm2.25.53a9.94,9.94,0,0,0,2.33-.67,8.59,8.59,0,0,0,.27-2,25.68,25.68,0,0,0,.31-3.13c-1.46.26-2.74.26-3.49.83s-.61,1.24-.61,2.21,0,2.2.57,2.6A1,1,0,0,0,6.53,48.08Zm4-3.27c-.08.58-.3,2-.39,2.21a2.87,2.87,0,0,1,.62-.22Zm-.35-11a25.27,25.27,0,0,1,.62,6.39A27.57,27.57,0,0,0,11,36.83,4.71,4.71,0,0,0,10.14,33.79Zm2.69,6.3.22-3.17a12,12,0,0,0,.09-1.54,5.39,5.39,0,0,0-1.23-3,32.4,32.4,0,0,1,.88,4.46C12.79,37.49,12.79,39.52,12.83,40.09Zm0,.89c-.22,1.14-.44,1.5-.44,1.8,0,.84.08,2.17.66,2.56C12.92,44.68,12.79,42,12.79,41Z"/><path class="cls-1" d="M20.9,36.13c0-1.33-.09-1.94-.7-1.94-.36,0-.62.3-.71.3-.31,0-.44-.26-.44-.57s.26-.53.75-.66c1.59-.4,4.37-2.73,5.11-2.73a.79.79,0,0,1,.89.79c0,.62-.53,1.63-.58,2.47,1.72-.84,3.71-2.07,6.66-2.07,5.56,0,5.73,3.52,5.73,8.33v6.7c0,1.15.58,1.63,1.46,1.63.18,0,.4,0,.62,0s.31.18.31.49-.18.61-.75.61c-.75,0-1.86-.26-2.74-.26s-1.89.13-2.95.13c-.58,0-.93-.18-1-.57,0-.22,1.41-.8,1.41-1.37s-.35-1.59-.35-2.42c0-1.37.08-2.83.08-3.8,0-1.54-.39-2.47-.39-4.1,0-.39,0-.88,0-1.32a2.15,2.15,0,0,0-2.07-2.34c-1.72,0-5.38,1.06-6,2.82a8,8,0,0,0-.49,2.69c0,1.19.22,2.3.22,3.62,0,.44-.17,3-.17,5.2,0,.4.53.44,1.14.44h.66c.75,0,1.46.09,1.46.71s-.31.66-.79.66-1.24-.18-1.94-.18c-.27,0-.67,0-1,0s-1.06,0-1.5,0c-1,0-1.94.18-2.83.18-.57-.09-.61-.22-.61-.62s.22-.35.48-.35c1.19,0,1.32-.35,1.32-1.9s-.39-4-.39-5.77c0-.84,0-1.63,0-2.6,0-.44,0-.93,0-1.46C20.86,36.57,20.9,36.35,20.9,36.13Zm1.77,5.73a27.28,27.28,0,0,0-.8-6.75c0,3.62.27,7.23.31,11.16A16.55,16.55,0,0,0,22.67,41.86ZM23.77,36c0-.44-.35-1.76-.8-1.76.36,1.05.27,10.8.31,12.78ZM35.1,42.61V41.9c0-2.69,0-5-.84-6.48a2.6,2.6,0,0,0,0,.53c0,2.07.53,3,.53,4.94,0,1.37.13,2.86.13,4.63,0,.66-.18,1.28-.18,2A24,24,0,0,0,35.1,42.61Zm-.26-8.12a17.75,17.75,0,0,1,1.1,6.84c0,1.9-.13,3.79-.18,5.6.4-.79.44-2.12.44-5.91C36.2,38.73,36.16,35.86,34.84,34.49Z"/><path class="cls-1" d="M59.75,47.19c0,.44.57.44.84.44s.31,0,.4,0c.39,0,.61.35.61.75,0,1.1-2.16,1.1-3.35,1.1-.88,0-1.41-1.67-1.5-3.61-.79,1.89-4.67,4-8.11,4-4.19,0-8.6-4-8.6-9.48,0-1.37.53-2.56,1.41-4.46s2.56-2.64,4.06-3.57a11.3,11.3,0,0,1,8.86-.13c-.31-2.08-.48-13.53-.48-15.65a41.55,41.55,0,0,1,.66-5.29,2.61,2.61,0,0,1-.71.27c-1.28,0-1.36-.53-1.36-1,0-.23,0-.45.48-.45,1.63,0,3-1.36,4.45-1.36.49,0,1.68,0,1.68.53a18.55,18.55,0,0,0-.26,1.94c0,2.07.46,14.8.46,17.41s.15,5.11.06,7.58c-.08,1.81.14,3.7.14,5.34C59.53,42.56,59.75,46.27,59.75,47.19ZM42.2,43.84A47.11,47.11,0,0,1,43,36a11.47,11.47,0,0,0-1.28,4.55A19.44,19.44,0,0,0,42.2,43.84Zm3.4,3.53a7.21,7.21,0,0,1-1.24-4.5c0-1.67.71-7.76,1.81-8.86-2,1.67-2.29,6.17-2.29,8,0,.67-.18,1.55-.18,2.34A3.32,3.32,0,0,0,45.6,47.37Zm.08-6.17c0,1.85,1.2,7,3.36,7,4.23,0,5.9-1.68,5.9-8.6,0-4.5-.08-6.57-5.95-6.57-.44,0-1,.18-1.67,1.63A18.17,18.17,0,0,0,45.68,41.2Zm10.5-8c.09-1.15.09-2.29.09-3.31V27c0-1.81.31-13,.31-14.15a2.18,2.18,0,0,0-.4-1.5c0,3.93-.49,14.63-.49,16.79a25.75,25.75,0,0,0,.4,4.24C56.14,32.73,56.14,33,56.18,33.17Zm.4,11.69c0-2.12.17-3.88.17-5.38a14.23,14.23,0,0,0-.09-1.5l-.44-3.4c-.17,0-.22,1.77-.22,2,0,.75,0,1.58,0,2.86V41A19.93,19.93,0,0,0,56.58,44.86Zm1.23-6.71L58,37c.13-1.85.17-3.71.17-5.56V29.91c0-2,0-13.44-.61-15.6C57.63,19.07,57.68,33.35,57.81,38.15Z"/><path class="cls-1" d="M67.87,40.49c0,.49.08,1,.08,1.5,0,1.06-.13,2.16-.13,3.18,0,1.45.22,2.6,1.41,2.91,1.55.44,2.78,0,2.78.88a.52.52,0,0,1-.4.53c-.26,0-3.08-.14-3.39-.14-1.59,0-3.44.14-5.42.14-.31,0-.45-.31-.45-.58,0-.88,1.28-.26,1.28-1,0-.35-.17-.83-.17-1.54,0-2.25.61-9.39.61-11.46,0-.67-.44-.75-1.14-.75-.27,0-.44,0-.44-.27s0-.57.53-.7c2.24-.53,3.88-2.17,4.63-2.17a.59.59,0,0,1,.66.58,7.08,7.08,0,0,1-.09.79V34l.4-.27c1.94-1.23,3.43-2.16,4.58-2.16,1.37,0,3,0,3,1.63,0,.84-.71,2-1.19,2-1.15,0-1.76-1.15-3-1.15-1.94,0-3.84,2-3.84,3.17C68.17,38,67.87,39.21,67.87,40.49ZM64.65,46c0,.57,0,1.06.09,1.63A3.74,3.74,0,0,0,65,46.14v-5A34.56,34.56,0,0,0,64.65,46Zm.22-11.64c.09.62,0,4.85.09,5.86,0-.31.3-4,.3-4.19a7.57,7.57,0,0,0-.17-1.76Zm1.41,11.82.13-.75c0-3.88.27-8.47.27-10.45a.85.85,0,0,0-.22-.67c0,.09,0,.18,0,.27,0,.4-.22.84-.22,1.23,0,2-.13,2.16-.13,5.6C66.15,43.27,66.23,44.33,66.28,46.14Z"/><path class="cls-1" d="M88.26,38.64c-1.67,0-3.39,0-5.07-.09a11,11,0,0,0-.35,2.65,15.41,15.41,0,0,0,1.28,6.39,2.51,2.51,0,0,0,1.85.93c5,0,5.34-3.4,6-3.4a.82.82,0,0,1,.84.88c0,2.38-5.07,4.24-5.73,4.24-3,0-6.09-.93-8-3.49a12.4,12.4,0,0,1-2.11-7A26.33,26.33,0,0,1,78.08,36a9.4,9.4,0,0,1,8.07-5.21c3.92,0,6.44,2.69,6.44,6.13,0,.62-1.2,1.24-2.74,1.55A9.47,9.47,0,0,1,88.26,38.64Zm-6.57-5.16c-2.47,1.85-3,4.94-3,7.19a12.59,12.59,0,0,0,.22,2.47C79.49,39.92,79.09,37.05,81.69,33.48ZM82,45.65c0-1.19-.4-2.38-.4-3.84a16.64,16.64,0,0,1,.49-3.3l.88-4.72A12.91,12.91,0,0,0,80.86,41,11.8,11.8,0,0,0,82,45.65Zm1.72-8.77c.84,0,1.76,0,2.78,0,.22,0,.53,0,1,0,0-1.37.09-4.06-1.19-4.06-.84,0-1.28.66-1.76,1.81C84.21,35.42,83.9,36.17,83.68,36.88Zm5.38-1.11a15,15,0,0,0-.66-1.45c.17.84.3,1.63.39,2.47.09,0,.36,0,.49,0ZM91,36c0-1.41-1.19-2.34-2.21-3.13a9.36,9.36,0,0,1,1.68,3.79Z"/><path class="cls-1" d="M116.33,32.2a.47.47,0,0,1,.53-.44c.35,0,.84.22,1.45.22.09,0,.22,0,.36,0,.48,0,1,0,1.58,0,.75,0,1.55,0,2.34-.09.44,0,.71.22.71.53,0,.93-2.08.27-2.65,1.5-.35.75-1.23,1.5-1.5,2.34-.62,1.81-.79,3.79-1.45,5.6a36,36,0,0,1-2.3,4.5c-.57,1-.48,3.66-2,3.66-3.66,0-2.07-6.13-5.55-11.56a20.38,20.38,0,0,0-1.1,3.13,23.42,23.42,0,0,0-1.5,2.78c-.62,1.68-1.46,5.78-2.69,5.78-5.12,0-2.74-12.08-7.37-16.54-.48-.48-1.94-.57-1.94-1.19a.47.47,0,0,1,.53-.44h4.37c.75-.09,2-.09,2.78-.09.44,0,.7.22.7.53s-.31.35-.7.35h-.62c-.49,0-.93.09-.93.58s.53.79.71,1.19c.66,1.37,1,2.91,1.63,4.32s1.59,2.51,2.07,4.63c.57-1.28,1.37-2.38,1.85-3.66s1.68-3.26,1.68-4.5c0-2.2-3-1.89-3-2.82,0-.31.18-.66.49-.66.79,0,1.67,0,2.55,0,1.77,0,3.57,0,5.12,0a.44.44,0,0,1,.35.48c0,.58-1.76-.39-1.76,1.72,0,2.3,2.55,6.35,3.57,11a58.13,58.13,0,0,0,1.9-5.51c.48-1.94,1.89-4.5,1.89-5.87C118.4,32.77,116.33,33.39,116.33,32.2ZM102.66,45.78c-.49-.79-.13-2.07-.53-3.35-.66-1.94-2.38-5-3.31-7.41l-.53-1.36a.63.63,0,0,0-.13.35c0,2.25,1.76,4,2.87,6.48C101.64,41.9,102.31,45.78,102.66,45.78Zm-3.75-4.67c.57,3,1.15,5.91,2.47,7.19-.75-2.65-1-4.85-1.94-7l-.71-1.15Zm11-7.32a1.47,1.47,0,0,0,0,.44c0,3.44,2.55,12.57,3.61,12.48a23.48,23.48,0,0,1-1.28-3.53C111.48,39.79,110.16,37.23,109.89,33.79Zm2.87,14.68c-.8-1.85-2-6.39-2.56-8.07C110.29,42.48,111.3,47.68,112.76,48.47Z"/><path class="cls-1" d="M133.73,36c-.39,0-.79-.53-.92-1-.35-1.45-1.06-2.38-3.4-2.38-.79,0-1.19.22-1.19,1,0,5.73,6.35,5.47,6.35,11.69a5.27,5.27,0,0,1-5.6,5.11c-6,0-6.08-2.78-6.08-5.55,0-.31,0-1,.53-1s.61.17.61.7c0,3.31,3,4,4.94,4,2.21,0,3.13-.4,3.13-2.12,0-1.1-2.91-2.16-4.54-3.84-1.85-1.89-3.79-4.28-3.79-6.74,0-1.86,1.85-4.55,6-4.55h.3c1.37,0,3.05,0,3.66,1a5.12,5.12,0,0,1,.58,2.73C134.26,35.73,134.09,36,133.73,36Zm-2.24,5.52c-1.46-1.33-4.59-5-4.59-7.46a3.82,3.82,0,0,0-.31,1.68C126.59,37.67,130.16,41,131.49,41.51Z"/><g id="z8zuQ3"><path class="cls-1" d="M5.53,55.67a1.86,1.86,0,0,1,1-.23c.57,0,1.14,0,1.71,0,.38,0,.75,0,1.13,0s.54,0,.81.06.42,0,.63,0a2.93,2.93,0,0,1,1.67,1,1.1,1.1,0,0,1,.22.67,1.88,1.88,0,0,1-.12.78,2.37,2.37,0,0,1-.45.68c-.21.23-.48.41-.7.63s-.21.33,0,.53l1,.85c.11.09.25.18.29.31a1.85,1.85,0,0,1-1.1,2.57,3.9,3.9,0,0,1-1,.33c-.18,0-.37,0-.56,0s-.61.06-.91.06-.57-.07-.85-.08c-.44,0-.88,0-1.32,0-.15,0-.3,0-.44,0a4.07,4.07,0,0,0-.61,0,.37.37,0,0,1-.44-.26c0-.21.12-.3.28-.31.44,0,.68-.37.79-.8a8.52,8.52,0,0,0,0-1.82c0-.25,0-.5.06-.75a5.44,5.44,0,0,0,0-.57c0-.54,0-1.09,0-1.63,0-.34,0-.68-.07-1A.73.73,0,0,0,6,56a1.92,1.92,0,0,1-.48-.23Zm3.65,4.14H8.85c-.41,0-.44,0-.56.42a2.65,2.65,0,0,0-.1.55c0,.24,0,.49,0,.73s0,.7,0,1.05.32.83.74.82a1.12,1.12,0,0,1,.4,0,1.83,1.83,0,0,0,.93,0,1.17,1.17,0,0,0,1-1.13c0-.31,0-.62,0-.94a1.28,1.28,0,0,0-.64-1.08A2.38,2.38,0,0,0,9.18,59.81Zm2-2.22a1.24,1.24,0,0,0-.8-1.42A2.14,2.14,0,0,0,9.24,56L9,56a.82.82,0,0,0-.8.91,2.75,2.75,0,0,1,0,1.07,3.36,3.36,0,0,0,.11.94.42.42,0,0,0,.25.24,3.17,3.17,0,0,0,.75.12,8,8,0,0,0,1-.13A.65.65,0,0,0,10.6,59a1.68,1.68,0,0,0,.58-.9C11.2,58,11.2,57.77,11.21,57.59Zm.74-.51.1-.32-.27-.16-.21.35ZM7.53,62.46v-.08a1.24,1.24,0,0,0,.18-.21,2.68,2.68,0,0,0,.18-.28l-.06,0-.61.5ZM7.37,63l-.59.2c.12.4.39,0,.56.12Z"/><path class="cls-1" d="M92.77,58.29a2.55,2.55,0,0,0-.22.37c-.2.47-.39,1-.56,1.43s-.38,1-.55,1.59-.25.8-.39,1.2a2.26,2.26,0,0,1-.22.44.32.32,0,0,1-.59,0c-.13-.28-.26-.55-.37-.84s-.13-.5-.21-.75c-.19-.64-.42-1.27-.6-1.91a9.87,9.87,0,0,0-.52-1.2c0-.07-.12-.11-.18-.16a.71.71,0,0,0-.11.21c0,.65,0,1.3-.06,1.94a4.5,4.5,0,0,0,0,.9,2.89,2.89,0,0,0,.12.94,2.83,2.83,0,0,0,.56.7s.1.05.13.1a.77.77,0,0,1,.16.36c0,.06-.15.16-.26.19a.83.83,0,0,1-.75,0s-.12,0-.18,0h-.77a3.84,3.84,0,0,1-.68,0,.39.39,0,0,1-.23-.27.4.4,0,0,1,.21-.28,1.24,1.24,0,0,0,.79-.71,2.14,2.14,0,0,0,.16-.82c0-.86,0-1.71-.08-2.56,0-.47-.08-.93-.13-1.39,0-.06,0-.11,0-.17a.89.89,0,0,0-.85-1c-.45-.07-.71-.4-.57-.74a.57.57,0,0,1,.54-.37c.32,0,.64.07,1,.09a10.78,10.78,0,0,0,1.39.06c.39,0,.69.09.79.48s.14.71.22,1.07a.9.9,0,0,0,0,.16l.54,1.4c0,.06,0,.12,0,.18.13.43.25.87.39,1.3,0,.08.16.19.21.18a.41.41,0,0,0,.25-.21c.17-.44.33-.9.46-1.36.2-.71.36-1.43.56-2.14a2.16,2.16,0,0,1,.42-.81.81.81,0,0,1,.59-.16,5.85,5.85,0,0,0,1.61-.23,1.19,1.19,0,0,1,1,.2.38.38,0,0,1,.09.27.72.72,0,0,1-.68.6.88.88,0,0,0-.77.87c0,.29-.05.57-.08.85a1.31,1.31,0,0,0,0,.28,8.21,8.21,0,0,1,.05,2.1c0,.37,0,.74,0,1.11a1.61,1.61,0,0,1,0,.31c-.15.7.19.92.69,1.13a1.1,1.1,0,0,1,.29.11,1.31,1.31,0,0,1,.17.31.82.82,0,0,1-.28.11c-.7,0-1.39,0-2.08,0a1.87,1.87,0,0,1-.88-.07,1,1,0,0,1-.19-.17,1,1,0,0,1,.19-.17l.4-.16a.8.8,0,0,0,.38-.63c.08-.46-.11-.88-.07-1.33a7.39,7.39,0,0,0,0-1.56,6.53,6.53,0,0,1-.13-1.24S92.83,58.36,92.77,58.29Zm1.3,4.41,0-.06-.29-.23a.49.49,0,0,0-.17,0c0,.06,0,.15,0,.17A2.43,2.43,0,0,0,94.07,62.7Zm-6,.62-.44-.21C87.57,63.32,87.57,63.32,88,63.32Zm2.68-1.11-.32.07v.08l.31.1Zm-.1-.08c.27.11.35,0,.33-.22Zm-1.18-2.88,0,.2.2-.31h-.39v.06Z"/><path class="cls-1" d="M36,57.15c0-.16,0-.32-.07-.47a.28.28,0,0,0-.09-.18c-.21-.18-.44-.33-.65-.5s-.17-.15-.17-.23a.31.31,0,0,1,.19-.2,2.61,2.61,0,0,1,1.21-.14,4.93,4.93,0,0,0,.54,0l1.09.05c.18,0,.21.11.14.23A.56.56,0,0,1,38,56a.65.65,0,0,0-.5.83,6.61,6.61,0,0,0,.53,2,8.81,8.81,0,0,1,.2.92,2.65,2.65,0,0,0,.38.75.25.25,0,0,0,.47,0,18.48,18.48,0,0,0,1-3.35,1.19,1.19,0,0,0-.06-.62c-.06-.15-.24-.25-.36-.37s-.24-.2-.24-.28a.55.55,0,0,1,.24-.31.58.58,0,0,1,.34-.09c.3,0,.59,0,.89,0h.56a.6.6,0,0,1,.23.06c.27.12.29.3.07.48s-.35.23-.5.37a1.18,1.18,0,0,0-.29.41c-.19.42-.34.85-.52,1.27a8.57,8.57,0,0,0-.4,1.21c-.26.91-.59,1.81-.89,2.72-.15.46-.31.92-.46,1.39-.06.18-.09.44-.32.44s-.3-.17-.41-.3a1.15,1.15,0,0,1-.28-.86,1.15,1.15,0,0,0,0-.26c-.14-.61-.27-1.21-.41-1.82a1.92,1.92,0,0,0-.17-.39l-.1-.24c-.13-.32-.25-.64-.39-1s-.29-.15-.39,0a1,1,0,0,0-.09.24c-.16.39-.31.77-.46,1.16-.05.14-.08.29-.12.44-.09.34-.19.67-.28,1s-.14.72-.24,1.08a6,6,0,0,1-.29.84.24.24,0,0,1-.42.07,1.16,1.16,0,0,1-.29-.45c-.16-.55-.29-1.1-.43-1.65,0-.11-.08-.21-.1-.31s-.09-.38-.13-.57a1.23,1.23,0,0,0,0-.19c-.14-.39-.29-.78-.44-1.17a.14.14,0,0,1,0-.06l-.77-2.6c-.1-.36-.4-.5-.71-.63a1,1,0,0,1-.28-.12c-.19-.17-.18-.32,0-.46a.74.74,0,0,1,.83-.17.58.58,0,0,0,.23,0l.39,0a1.13,1.13,0,0,0,.41,0,1.09,1.09,0,0,1,.83,0c.09,0,.2,0,.3.07s.15.07.16.13a.24.24,0,0,1-.06.22,1.35,1.35,0,0,1-.34.17.45.45,0,0,0-.34.46,5.16,5.16,0,0,0,.1.67c0,.1,0,.21.08.32l.21.72a.68.68,0,0,1,.07.2,5,5,0,0,0,.5,1.64,3.17,3.17,0,0,0,.14.4c0,.06.11.15.16.14a.29.29,0,0,0,.19-.15c.14-.36.26-.74.41-1.11a3.17,3.17,0,0,0,.32-1.25c0-.1.06-.19.09-.29s.17-.44.26-.67Zm1,1.43v.05l.5.12v-.08C37.33,58.45,37.13,58.62,37,58.58Zm-2.64,2.89,0,.06.36.09c0-.07-.07-.19-.13-.22S34.41,61.44,34.32,61.47Zm.39-.43v0a3,3,0,0,0-.32.12s0,.09,0,.14a.27.27,0,0,0,.13,0Zm2.23-4.91-.17-.4-.16.18Z"/><path class="cls-1" d="M16.45,61a3,3,0,0,0-.05.66,8.59,8.59,0,0,0,.24,1.12c0,.07.12.13.2.18l.36.18c.16.07.31.16.27.37a.4.4,0,0,1-.4.34c-.24,0-.49,0-.74,0s-.58,0-.87,0-.74,0-1.11,0h0c-.12-.07-.31-.14-.32-.23s.11-.24.21-.34a1,1,0,0,1,.3-.19,1,1,0,0,0,.43-1,1.59,1.59,0,0,1,0-.72,1.85,1.85,0,0,0,0-.4c0-.37.06-.73.06-1.1s0-.75,0-1.12,0-.57,0-.85a2.2,2.2,0,0,0-.22-1.24c-.08-.12-.24-.18-.36-.27a1.59,1.59,0,0,1-.36-.32c-.13-.19,0-.43.28-.45a2.13,2.13,0,0,1,1.12.05s.1,0,.14,0c.77,0,1.53-.08,2.29-.05a8.26,8.26,0,0,1,1.27.28,2.11,2.11,0,0,1,1.53,2.05A2,2,0,0,1,20.09,59a1.79,1.79,0,0,1-.73.54c-.14,0-.15.18-.08.32.21.43.42.86.62,1.3.11.24.19.5.29.74s.29.32.53.09a.57.57,0,0,1,.44-.18c.11,0,.2.23.25.38.14.45-.12.84-.26,1.24,0,.1-.16.17-.26.24s-.1,0-.14.07a1.09,1.09,0,0,1-1,.12.55.55,0,0,1-.42-.27c-.13-.21-.32-.38-.45-.59a2.13,2.13,0,0,1-.28-1.16,2.43,2.43,0,0,0-.27-1.27.74.74,0,0,0-.31-.34A5.14,5.14,0,0,0,17,60c-.24,0-.52.28-.53.53s0,.29,0,.43Zm-.09-2.63c0,.16,0,.32.08.48a.28.28,0,0,0,.11.17,1.9,1.9,0,0,0,1.26.18.71.71,0,0,1,.2,0,.73.73,0,0,0,.78-.48c0-.1.09-.19.11-.28.08-.27.25-.49.16-.81-.14-.55-.24-1.08-.93-1.24-.47-.11-.92-.27-1.36.07l-.06,0c-.22,0-.27.2-.28.38C16.41,57.31,16.39,57.81,16.36,58.32Zm-1.15,3.24c.09.1.17.15.28,0s.08,0,.12,0a.45.45,0,0,1,0,.11.22.22,0,0,1,0,.1h.29c0,.2.15.11.24.14l.05-.06-.46-.56,0-.25h-.07l0,.12h-.25v0l.26.06C15.48,61.39,15.5,61.65,15.21,61.56Zm4.15.61L19.24,62c.09-.16.39-.16.27-.42l-.34-.09,0,0,.15.18c-.06.08-.17.16-.15.22S19.1,62.21,19.36,62.17Zm.68.4c-.06-.12-.1-.32-.31-.21a1,1,0,0,0-.22.18l.24.21.1-.22Zm-4-5.24c-.06,0-.18.06-.22,0-.2-.16-.25,0-.37.15l.24,0,.19.22Zm3.35,1.23v.1l.48.06V58.6Zm-3.88-.28.34-.19-.18-.2Z"/><path class="cls-1" d="M28.7,63.81c-.29,0-.65,0-1,0s-.75-.05-1.12,0-.62.1-.93.14a.87.87,0,0,1-.42,0,2.68,2.68,0,0,0-1.09-.07c-.21,0-.42,0-.63,0a.59.59,0,0,0-.3,0,.51.51,0,0,1-.6-.08c-.27-.21-.2-.58.2-.7a1.26,1.26,0,0,0,1-1.5,9.84,9.84,0,0,1,0-1.33c0-.41.06-.82.09-1.22a.59.59,0,0,0,0-.19,4.7,4.7,0,0,0,0-.53c-.06-.56.16-1.15-.17-1.69a.92.92,0,0,0-.68-.46c-.14,0-.31-.06-.29-.22s.16-.21.26-.23a6.54,6.54,0,0,1,.89-.08c.47,0,.93,0,1.39,0,.19,0,.38,0,.56.06l1.13,0a5.87,5.87,0,0,0,.59.05c.35,0,.71-.05,1.07-.08a3.92,3.92,0,0,1,.68-.07c.27,0,.38.23.41.51s.11.4.15.6a1.94,1.94,0,0,1,0,.34c0,.24,0,.48,0,.71s-.07.23-.13.25a.34.34,0,0,1-.27-.11.67.67,0,0,1-.1-.29,1.41,1.41,0,0,0-.51-.82,1.07,1.07,0,0,1-.14-.16,1.24,1.24,0,0,0-.65-.47A2.08,2.08,0,0,0,26.77,56a1.57,1.57,0,0,0-.88.29.27.27,0,0,1-.14.07.57.57,0,0,0-.49.59c0,.31,0,.63,0,.94s0,.49,0,.73a3.55,3.55,0,0,0,.17.66c.06.14.6.2.77.1a1.37,1.37,0,0,0,.61-.75,1.4,1.4,0,0,1,.39-.52c.1-.11.29,0,.33.18a2.37,2.37,0,0,1,0,1.49.28.28,0,0,0,0,.18,2.69,2.69,0,0,1,.05,1.38c0,.28-.24.36-.45.17a.86.86,0,0,1-.2-.26,3.11,3.11,0,0,1-.32-.63c-.12-.36-.45-.4-.73-.48s-.54.31-.57.62a5.26,5.26,0,0,0,.15,1.85.6.6,0,0,0,.35.35,2.48,2.48,0,0,0,.81.21,1.57,1.57,0,0,0,.59-.13,4.89,4.89,0,0,0,.77-.23,2,2,0,0,0,1-1.18,2.34,2.34,0,0,1,.43-.66.19.19,0,0,1,.36.07,4.21,4.21,0,0,1,.11,1.9c0,.22,0,.44-.22.61A1.36,1.36,0,0,1,28.7,63.81Zm-3.37-4c-.19-.14-.34-.38-.57-.11C24.79,60,24.79,60,25.33,59.83Z"/><path class="cls-1" d="M50.05,63.73a3.21,3.21,0,0,1-.43.07l-1.56,0a.27.27,0,0,1-.31-.23c0-.16.06-.24.19-.31a1.35,1.35,0,0,0,.8-.7,4.5,4.5,0,0,0,.14-.49c0-.27,0-.54.06-.8,0-1.3,0-2.6,0-3.9a2.46,2.46,0,0,0-.06-.67.74.74,0,0,0-.53-.5,1.89,1.89,0,0,1-.52-.18.32.32,0,0,1-.16-.25.34.34,0,0,1,.21-.21,4.36,4.36,0,0,1,1-.17,1.91,1.91,0,0,1,1,.2,2.75,2.75,0,0,1,.69.71c.25.3.47.63.71.94s.56.68.84,1l.56.69c.14.18.27.37.42.55.29.35.57.72.88,1.06.16.17.32.11.39-.11a1.59,1.59,0,0,0,.06-.38c0-.59.07-1.18.07-1.78A4.43,4.43,0,0,0,54.35,57a1.21,1.21,0,0,0-.87-.94c-.21,0-.36-.23-.29-.41a.55.55,0,0,1,.43-.29c.5,0,1,0,1.49.07.09,0,.21,0,.28,0a1.11,1.11,0,0,1,.76,0,.34.34,0,0,1,.24.18.44.44,0,0,1,0,.34,1.78,1.78,0,0,1-.51.39,1.22,1.22,0,0,0-.67,1c0,.35,0,.71,0,1.07L55,60.08s0,.07,0,.09a5,5,0,0,1,.07,1.72,11.34,11.34,0,0,1-.08,1.3.6.6,0,0,1-.06.23c0,.16-.19.22-.31.1s-.47-.5-.7-.75c0,0,0-.08-.05-.11l-.73-.92c-.09-.13-.15-.27-.25-.4l-.73-1c-.3-.38-.6-.76-.92-1.13s-.67-.75-1-1.1-.4-.2-.49.14a6.89,6.89,0,0,0-.19,1.12,5,5,0,0,0,0,1.6c.07.4.08.82.11,1.23a1.05,1.05,0,0,0,.68.84,2,2,0,0,1,.35.19.17.17,0,0,1,0,.3c-.19.09-.39.15-.58.23Zm.56-5.87c.06-.12.11-.23.17-.33s.09-.19.14-.28l-.07,0C50.45,57.74,50.45,57.74,50.61,57.86Zm4.16-1.76-.38-.16v.35C54.51,56.09,54.72,56.44,54.77,56.1Zm1-.27,0-.07a1.26,1.26,0,0,0-.2.2.51.51,0,0,0-.06.25l.07,0ZM50.22,57.6l.05-.11L50,57.32l-.1.16Z"/><path class="cls-1" d="M114.14,55.32c.32.07.62.12.91.21.1,0,.15.19.24.25.33.2.46.54.68.83s.7.84,1.06,1.26c0,0,0,0,.07.07.35.62,1,1.06,1.29,1.7a4.34,4.34,0,0,0,.81.91c.12.13.25.07.31-.06a1.65,1.65,0,0,0,.1-.44c0-.6.08-1.2.07-1.8a4.46,4.46,0,0,0-.13-1.27,1.2,1.2,0,0,0-.87-.93c-.2,0-.35-.23-.29-.39a.54.54,0,0,1,.41-.31c.49,0,1,0,1.47.06.11,0,.24.05.32,0a1.11,1.11,0,0,1,.76,0,.34.34,0,0,1,.24.19.37.37,0,0,1,0,.33,2.23,2.23,0,0,1-.55.42,1.46,1.46,0,0,0-.65,1,5.06,5.06,0,0,0,0,1.1c-.06.56-.07,1.13-.1,1.69a.34.34,0,0,0,0,.1,6.85,6.85,0,0,1,0,2.12c0,.3,0,.6,0,.89a.86.86,0,0,1,0,.23c-.07.16-.2.22-.32.1s-.47-.5-.7-.76c0,0,0-.07,0-.1-.25-.32-.5-.62-.74-.94-.09-.12-.15-.26-.24-.38-.23-.32-.47-.62-.72-.93s-.61-.78-.93-1.16-.67-.75-1-1.09-.39-.19-.48.12a9.58,9.58,0,0,0-.19,1.07,6.07,6.07,0,0,0,0,1.65,10.37,10.37,0,0,1,.12,1.25,1.05,1.05,0,0,0,.66.83,2.47,2.47,0,0,1,.36.19.17.17,0,0,1,0,.3,1,1,0,0,1-.43.18,9,9,0,0,1-2.2,0,.45.45,0,0,1-.28-.2c-.07-.14,0-.25.17-.32a1.35,1.35,0,0,0,.81-.71,2.85,2.85,0,0,0,.14-.5,7,7,0,0,0,.06-.8c0-1.3,0-2.6,0-3.9a1.62,1.62,0,0,0,0-.49.85.85,0,0,0-.61-.67,1.94,1.94,0,0,1-.51-.18.35.35,0,0,1-.16-.26c0-.07.12-.18.2-.2C113.44,55.44,113.8,55.38,114.14,55.32Zm1.67,2.54.31-.61-.06,0C115.65,57.73,115.65,57.73,115.81,57.86Zm3.78-1.9v.22l.3.09C120,56.09,120,56,119.59,56Zm1.1.27.24-.41C120.75,55.76,120.62,55.93,120.69,56.23Zm-5.27,1.37,0-.11-.24-.17-.1.16Z"/><path class="cls-1" d="M59.29,57.84a1.35,1.35,0,0,1,0,.35,8.46,8.46,0,0,0-.07,2.46,7.14,7.14,0,0,0,.15,1.13,1.12,1.12,0,0,0,.54.77c.32.17.62.39,1,.55a1,1,0,0,0,.4,0l.18,0s.12,0,.13,0c.18-.34.62-.32.85-.63a1.25,1.25,0,0,0-.11-1.61c-.15-.11-.31-.19-.46-.29s-.22-.4,0-.52a.56.56,0,0,1,.21-.06,2.9,2.9,0,0,1,1.28-.06,3,3,0,0,0,.66,0,4.08,4.08,0,0,1,.85.14c.24.09.23.35,0,.49a1.46,1.46,0,0,0-.63,1.4c0,.52,0,1,0,1.56a.6.6,0,0,1-.06.23.29.29,0,0,1-.44.17,1.33,1.33,0,0,1-.19-.14.92.92,0,0,0-1-.1,4.21,4.21,0,0,1-1.08.19c-.21,0-.44-.07-.66,0a2.25,2.25,0,0,1-.89-.18,1.86,1.86,0,0,1-.58-.33c-.35-.3-.67-.62-1-1A1.14,1.14,0,0,1,58,62a15.18,15.18,0,0,1-.52-1.57,2.5,2.5,0,0,1,0-.86c.08-.57.18-1.14.27-1.71a.85.85,0,0,1,.09-.22,3.56,3.56,0,0,0,.36-.62,1.07,1.07,0,0,1,.6-.6c.27-.13.53-.3.79-.45a1.79,1.79,0,0,1,.64-.34,1.24,1.24,0,0,0,.42-.17c.48-.27.91-.06,1.36.08a2,2,0,0,0,1.59,0,.57.57,0,0,1,.34,0,.33.33,0,0,1,.2.2,9,9,0,0,1,0,2.38.3.3,0,0,1-.29.34c-.19,0-.28-.1-.36-.24l-.91-1.58c-.05-.08-.1-.18-.17-.2-.49-.16-1-.3-1.47-.44a.36.36,0,0,0-.41.18.3.3,0,0,1-.19.1.79.79,0,0,0-.65.39,7.36,7.36,0,0,0-.44.89,1.19,1.19,0,0,0,0,.33Zm-.7,1h-.05l0,.29-.56.14.11.25c.43,0,.53,0,.5-.3l.18,0Zm5,3.82,0-.07a3.42,3.42,0,0,0-.42-.23s-.1,0-.15,0,0,.13.05.15a1.7,1.7,0,0,0,.32.1Zm.12-.22,0-.13-.45-.2,0,.1Z"/><path class="cls-1" d="M105.91,63.85l-.58-.08a2.17,2.17,0,0,0-.36,0c-.38,0-.75.07-1.13.07a.64.64,0,0,1-.4-.2s0-.25,0-.32a.93.93,0,0,1,.37-.28,1.31,1.31,0,0,0,.83-.81c.08-.24.22-.46.31-.69.18-.43.33-.87.52-1.29.32-.75.67-1.48,1-2.22a3.29,3.29,0,0,0,.16-.44c.07-.2.15-.4.21-.6s.17-.57.24-.86a.87.87,0,0,1,.66-.67.76.76,0,0,1,.79.55,4.51,4.51,0,0,0,.1.53c.17.62.33,1.25.54,1.86a17,17,0,0,1,.57,1.75,11.65,11.65,0,0,0,.65,1.66c.09.22.2.43.28.65a1.3,1.3,0,0,0,.89.79.33.33,0,0,1,.25.33c0,.15-.09.23-.23.29a1.11,1.11,0,0,1-.72.06,1.91,1.91,0,0,0-.63-.07c-.21,0-.39,0-.53-.17,0,0-.14,0-.18,0a1.11,1.11,0,0,1-1.2,0,.22.22,0,0,1,.11-.38,1,1,0,0,1,.18,0,.57.57,0,0,0,.47-.86c-.14-.3-.28-.6-.44-.9a.28.28,0,0,0-.18-.14,4.25,4.25,0,0,0-.88-.06,11.69,11.69,0,0,1-1.19.09.58.58,0,0,0-.18,0A.87.87,0,0,0,106,62.8c.16.16.37.29.54.44a.28.28,0,0,1,.1.21c0,.17-.12.34-.33.36a2.38,2.38,0,0,1-.38,0Zm2.42-3.77a1,1,0,0,0,0-.14c-.07-.2-.13-.41-.2-.61s-.25-.64-.4-.94a.25.25,0,0,0-.42,0c-.18.36-.36.73-.52,1.11a1.18,1.18,0,0,0-.1.45.56.56,0,0,0,.6.53c.25,0,.49,0,.73,0A.39.39,0,0,0,108.33,60.08Zm-.74-2.95,0,0,0,.18-.18,0a.61.61,0,0,0-.21,0l.57.48.08-.08-.25-.29.2-.1Zm.91.85a2.32,2.32,0,0,1-.17.49c-.11.16,0,.21.09.2a.29.29,0,0,0,.19-.21A2.14,2.14,0,0,0,108.5,58Zm1.91,4.88h-.12c0,.14-.18.29.09.46Z"/><path class="cls-1" d="M99.35,64c-.27,0-.6-.09-.94-.12s-.49,0-.73,0-.29-.06-.29-.23a.26.26,0,0,1,.28-.29.75.75,0,0,0,.66-.72c0-.72,0-1.43,0-2.14,0-.44,0-.88-.06-1.32,0-.69,0-1.38,0-2.06a.83.83,0,0,0-.69-.86A1.49,1.49,0,0,1,97,56c-.19-.14-.16-.31,0-.46a1.46,1.46,0,0,1,1.17-.15c.26,0,.51,0,.77,0s.31,0,.47,0c.68,0,1.37,0,2,0a3.24,3.24,0,0,1,1.1.2,3.91,3.91,0,0,1,1.14.71,2.07,2.07,0,0,1,.64,1.31,1.83,1.83,0,0,1-.77,1.74,3.52,3.52,0,0,1-2.28.73,7.18,7.18,0,0,0-1,.1.59.59,0,0,0-.38.25,1.83,1.83,0,0,0-.25,1.43,1.9,1.9,0,0,1,.06.63c-.07.68.32.92.78,1.11a1.14,1.14,0,0,1,.17.15c-.06,0-.13.12-.19.12C100.1,63.93,99.76,64,99.35,64Zm.34-5.27h0v.21a.77.77,0,0,0,.56.72,2.84,2.84,0,0,0,.82.06,1.63,1.63,0,0,0,1.37-.81,1.71,1.71,0,0,0,.1-1.54,3,3,0,0,0-.28-.57.91.91,0,0,0-.72-.49l-.35,0a1.82,1.82,0,0,0-1,.17.41.41,0,0,0-.2.21,3.45,3.45,0,0,0-.15.71c0,.22,0,.45,0,.68S99.73,58.49,99.69,58.71Zm-1.4-2.4h.49V56Zm4.74.4.44.24.07-.06c0-.09-.06-.23-.14-.27S103.22,56.66,103,56.71Z"/><path class="cls-1" d="M77.55,60.28a5.29,5.29,0,0,1-.13-1,4.74,4.74,0,0,1,.21-1.06c.09-.33.22-.64.34-1a1.27,1.27,0,0,1,.13-.19l.21-.33a2.88,2.88,0,0,1,.22-.27c.09-.08.23-.11.29-.2.43-.63,1.19-.69,1.76-1.07a.17.17,0,0,1,.14,0c.38.2.81,0,1.2.14a3.34,3.34,0,0,1,.52.14,6.45,6.45,0,0,1,.59.29.49.49,0,0,1,.18.14,4.16,4.16,0,0,0,.51.59,2.8,2.8,0,0,1,.76,1,3.92,3.92,0,0,1,.24,1.16c0,.31,0,.63,0,.94a3.15,3.15,0,0,1-.16,1.49c-.12.33-.26.64-.41,1a1.55,1.55,0,0,1-.48.56c-.2.17-.36.36-.56.53a2.65,2.65,0,0,1-.4.24s0,0-.07,0c-.4.43-.94.35-1.45.41a3,3,0,0,1-2.15-.62,1.28,1.28,0,0,1-.3-.26,13.4,13.4,0,0,1-.94-1.46,6.8,6.8,0,0,1-.37-1.21Zm1.32-.49h0c0,.25,0,.51,0,.76a3.24,3.24,0,0,0,.54,1.91,1.91,1.91,0,0,0,2.57.78A2,2,0,0,0,83.09,62a5.72,5.72,0,0,0,.19-1.24c0-.48,0-1,0-1.44,0-.29,0-.58,0-.87,0-.07,0-.16,0-.21-.25-.45-.23-1-.54-1.42a2.05,2.05,0,0,0-.75-.8,2.35,2.35,0,0,0-1.18-.19,1.72,1.72,0,0,0-1.07.46,1.15,1.15,0,0,0-.5.71,2.79,2.79,0,0,1-.2.55,3,3,0,0,0-.26.78C78.84,58.82,78.87,59.31,78.87,59.79Zm5.37,0c-.07-.08-.12-.19-.19-.21s-.44,0-.29.27S84.08,59.88,84.24,59.83Z"/><path class="cls-1" d="M71.4,58.77c0,.33-.07.67-.09,1a4.71,4.71,0,0,0,0,.84c0,.41.16.82.22,1.23A1.54,1.54,0,0,0,72.34,63a2.75,2.75,0,0,0,1.3.4h0c.51-.24,1.08-.31,1.43-.88A3.94,3.94,0,0,0,75.61,61c0-.2.12-.33.33-.32a.46.46,0,0,1,.38.45A2.77,2.77,0,0,1,75,63.39a2.37,2.37,0,0,1-1.65.42c-.27,0-.55,0-.82-.1a2.57,2.57,0,0,1-.71-.23,4.16,4.16,0,0,1-1.31-1.1,4.77,4.77,0,0,1-.8-1.94,6,6,0,0,1,.18-2.59A.85.85,0,0,1,70,57.6c.14-.25.29-.5.45-.74a4.58,4.58,0,0,1,.42-.46s.13-.08.16-.14a.34.34,0,0,1,.33-.18.35.35,0,0,0,.2-.1,1.32,1.32,0,0,1,.82-.41c.22,0,.43-.12.64-.13s.31.1.46.08a2.5,2.5,0,0,1,1.44.34.42.42,0,0,0,.51-.12c.16-.18.33-.32.6-.2a.67.67,0,0,1,.35.63c0,.38,0,.77,0,1.16a3.49,3.49,0,0,1-.18.79c-.08.23-.25.28-.43.14a1.32,1.32,0,0,1-.36-.42,2.72,2.72,0,0,0-.63-1,2.38,2.38,0,0,0-1.14-.6,1.87,1.87,0,0,0-2,1.12,10,10,0,0,0-.32,1.36Z"/><path class="cls-1" d="M129.65,55.64c.35,0,.75.07,1.13.15a.45.45,0,0,1,.32.26c0,.08-.1.24-.2.33a1.31,1.31,0,0,1-.44.26,2.31,2.31,0,0,0-1.12.85,2.5,2.5,0,0,1-.29.27.72.72,0,0,0-.19.2,7.14,7.14,0,0,1-1.1,1.71,2.26,2.26,0,0,0-.35,1.09,7.49,7.49,0,0,0,0,1.77.83.83,0,0,0,.87.74,1.14,1.14,0,0,1,.55.22.17.17,0,0,1-.06.31,1.11,1.11,0,0,1-.48,0,3.94,3.94,0,0,0-1.53,0,4.7,4.7,0,0,1-.52,0,4.22,4.22,0,0,0-.61,0c-.15,0-.28,0-.37-.12s0-.27.13-.37l.2-.17a1.33,1.33,0,0,0,.55-1.34c0-.22.06-.45,0-.66a3.25,3.25,0,0,0-.22-1c-.32-.75-.67-1.49-1.06-2.2a9.09,9.09,0,0,0-.91-1.23c-.25-.3-.65-.32-1-.43s-.41-.22-.38-.43a.51.51,0,0,1,.54-.33,4.75,4.75,0,0,0,1.36.07,2.67,2.67,0,0,1,1.73.22c.21.12.23.17.05.34s-.17.13-.24.2a.58.58,0,0,0-.19.62,6.28,6.28,0,0,0,.39.83l.27.47a8.06,8.06,0,0,0,.39.71.38.38,0,0,0,.67,0c.24-.34.46-.7.69-1,0,0,0-.1.07-.12.38-.22.39-.61.45-1a.62.62,0,0,0-.29-.54c-.09-.09-.21-.23-.19-.33s.2-.25.4-.26S129.31,55.66,129.65,55.64Zm-3.3,7.54.5.2s.08,0,.12-.06.17-.22-.06-.57l-.33.39-.2-.23Zm.47-3.55c-.16-.32-.22-.33-.53-.1Z"/><path class="cls-1" d="M44.17,62c0-.31-.07-.55-.08-.79s0-.59,0-.88c0-.47,0-1,0-1.42s0-1,0-1.52A3.37,3.37,0,0,0,44,56.6a.61.61,0,0,0-.5-.42c-.2,0-.44,0-.47-.34a.28.28,0,0,1,.3-.34c.12,0,.24,0,.36,0l1.35.05.64,0a3.39,3.39,0,0,1,.45,0c.07,0,.2.09.21.14a.52.52,0,0,1-.11.29c0,.05-.13.06-.19.1a1.06,1.06,0,0,0-.59.91c0,.6,0,1.2,0,1.81s.07,1,.07,1.51-.1.86-.09,1.29a3.15,3.15,0,0,0,.22,1c.06.16.31.26.49.37s.25.13.38.2a.33.33,0,0,1,.06.55.53.53,0,0,1-.6.16,2.23,2.23,0,0,0-1.06-.06c-.42,0-.85,0-1.27,0h-.46c-.27,0-.34-.07-.34-.36a.49.49,0,0,1,.37-.4,1.14,1.14,0,0,0,.3-.09s.08-.07.12-.07c.45,0,.46-.35.5-.67C44.15,62.09,44.17,62,44.17,62Zm.66-5.53-.39.3.25.12Z"/></g></g></g></svg>